<?xml version="1.0" encoding="UTF-8" standalone="no"?>
<!-- Generated by graphviz version 2.40.1 (20161225.0304)
 -->

<!-- Title: %3 Pages: 1 -->

<svg
   xmlns:dc="http://purl.org/dc/elements/1.1/"
   xmlns:cc="http://creativecommons.org/ns#"
   xmlns:rdf="http://www.w3.org/1999/02/22-rdf-syntax-ns#"
   xmlns:svg="http://www.w3.org/2000/svg"
   xmlns="http://www.w3.org/2000/svg"
   xmlns:sodipodi="http://sodipodi.sourceforge.net/DTD/sodipodi-0.dtd"
   xmlns:inkscape="http://www.inkscape.org/namespaces/inkscape"
   width="443.86075pt"
   height="285.97955pt"
   viewBox="0 0 443.85574 285.91229"
   version="1.1"
   id="svg817"
   sodipodi:docname="atom_types.svg"
   inkscape:version="0.92.4 (5da689c313, 2019-01-14)">
  <metadata
     id="metadata823">
    <rdf:RDF>
      <cc:Work
         rdf:about="">
        <dc:format>image/svg+xml</dc:format>
        <dc:type
           rdf:resource="http://purl.org/dc/dcmitype/StillImage" />
        <dc:title />
      </cc:Work>
    </rdf:RDF>
  </metadata>
  <defs
     id="defs821" />
  <sodipodi:namedview
     pagecolor="#ffffff"
     bordercolor="#666666"
     borderopacity="1"
     objecttolerance="10"
     gridtolerance="10"
     guidetolerance="10"
     inkscape:pageopacity="0"
     inkscape:pageshadow="2"
     inkscape:window-width="1916"
     inkscape:window-height="1149"
     id="namedview819"
     showgrid="false"
     inkscape:zoom="1.9032258"
     inkscape:cx="279.05507"
     inkscape:cy="208.73231"
     inkscape:window-x="1920"
     inkscape:window-y="49"
     inkscape:window-maximized="0"
     inkscape:current-layer="graph0"
     fit-margin-top="0"
     fit-margin-left="0"
     fit-margin-right="0"
     fit-margin-bottom="0" />
  <g
     id="graph0"
     class="graph"
     transform="translate(-227.4222,429.79173)">
    <path
       style="fill:none;stroke:#000000;stroke-width:1"
       inkscape:connector-curvature="0"
       id="path38-1"
       d="m 465.4957,-216.25566 0.15366,26.06415"
       sodipodi:nodetypes="cc" />
    <path
       style="fill:none;stroke:#000000"
       inkscape:connector-curvature="0"
       id="path238"
       d="m 575.73783,-238.55647 17.07528,0.76749"
       sodipodi:nodetypes="cc" />
    <path
       style="fill:none;stroke:#000000"
       inkscape:connector-curvature="0"
       id="path138"
       d="m 497.8896,-239.386 23.66126,0.22853"
       sodipodi:nodetypes="cc" />
    <title
       id="title2">%3</title>
    <!-- N -->
    <path
       style="fill:#4268f4;stroke:#000000"
       inkscape:connector-curvature="0"
       id="path8"
       d="m 336.61817,-214.74739 c 0,0 45,0 45,0 6,0 12,-6 12,-12 0,0 0,-22 0,-22 0,-6 -6,-12 -12,-12 0,0 -45,0 -45,0 -6,0 -12,6 -12,12 0,0 0,22 0,22 0,6 6,12 12,12" />
    <text
       style="font-size:14px;font-family:Times, serif;text-anchor:middle;fill:#000000"
       id="text10"
       font-size="14.00"
       y="-234.04739"
       x="337.61819">N</text>
    <polyline
       style="fill:none;stroke:#000000"
       id="polyline12"
       points="392.635,-105.6466 392.635,-151.6466 "
       transform="translate(-42.016826,-109.10079)" />
    <text
       style="font-size:14px;font-family:Times, serif;text-anchor:middle;fill:#000000"
       id="text14"
       font-size="14.00"
       y="-245.54739"
       x="372.11819">N</text>
    <polyline
       style="fill:none;stroke:#000000"
       id="polyline16"
       points="392.635,-128.6466 435.635,-128.6466 "
       transform="translate(-42.016826,-109.10079)" />
    <text
       style="font-size:14px;font-family:Times, serif;text-anchor:middle;fill:#000000"
       id="text18"
       font-size="14.00"
       y="-222.54739"
       x="372.11819">NH1</text>
    <!-- HN -->
    <path
       style="fill:#cecece;stroke:#000000"
       inkscape:connector-curvature="0"
       id="path23"
       d="m 340.62934,-152.79074 c 0,0 38,0 38,0 6,0 12,-6 12,-12 0,0 0,-22 0,-22 0,-6 -6,-12 -12,-12 0,0 -38,0 -38,0 -6,0 -12,6 -12,12 0,0 0,22 0,22 0,6 6,12 12,12" />
    <text
       style="font-size:14px;font-family:Times, serif;text-anchor:middle;fill:#000000"
       id="text25"
       font-size="14.00"
       y="-172.09076"
       x="341.62936">H</text>
    <polyline
       style="fill:none;stroke:#000000"
       id="polyline27"
       points="408.6279,-.5 408.6279,-46.5 "
       transform="translate(-53.998546,-152.29074)" />
    <text
       style="font-size:14px;font-family:Times, serif;text-anchor:middle;fill:#000000"
       id="text29"
       font-size="14.00"
       y="-183.59076"
       x="372.62936">HN</text>
    <polyline
       style="fill:none;stroke:#000000"
       id="polyline31"
       points="408.6279,-23.5 444.6279,-23.5 "
       transform="translate(-53.998546,-152.29074)" />
    <text
       style="font-size:14px;font-family:Times, serif;text-anchor:middle;fill:#000000"
       id="text33"
       font-size="14.00"
       y="-160.59076"
       x="372.62936">H</text>
    <!-- N&#45;&#45;HN -->
    <path
       style="fill:none;stroke:#000000"
       inkscape:connector-curvature="0"
       id="path38"
       d="m 350.61817,-214.74739 4.01118,15.95665"
       sodipodi:nodetypes="cc" />
    <!-- CA -->
    <path
       style="fill:#40e0d0;stroke:#000000"
       inkscape:connector-curvature="0"
       id="path43"
       d="m 442.8896,-216.386 c 0,0 43,0 43,0 6,0 12,-6 12,-12 0,0 0,-22 0,-22 0,-6 -6,-12 -12,-12 0,0 -43,0 -43,0 -6,0 -12,6 -12,12 0,0 0,22 0,22 0,6 6,12 12,12" />
    <text
       style="font-size:14px;font-family:Times, serif;text-anchor:middle;fill:#000000"
       id="text45"
       font-size="14.00"
       y="-235.686"
       x="443.88959">C</text>
    <polyline
       style="fill:none;stroke:#000000"
       id="polyline47"
       points="456.8896,-216.386 456.8896,-262.386 " />
    <text
       style="font-size:14px;font-family:Times, serif;text-anchor:middle;fill:#000000"
       id="text49"
       font-size="14.00"
       y="-247.186"
       x="477.38959">CA</text>
    <polyline
       style="fill:none;stroke:#000000"
       id="polyline51"
       points="456.8896,-239.386 497.8896,-239.386 " />
    <text
       style="font-size:14px;font-family:Times, serif;text-anchor:middle;fill:#000000"
       id="text53"
       font-size="14.00"
       y="-224.186"
       x="477.38959">CT1</text>
    <!-- N&#45;&#45;CA -->
    <!-- &#45;C -->
    <path
       style="fill:#b27c00;stroke:#000000"
       inkscape:connector-curvature="0"
       id="path63"
       d="m 239.9222,-216.40109 c 0,0 50,0 50,0 6,0 12,-6 12,-12 0,0 0,-22 0,-22 0,-6 -6,-12 -12,-12 0,0 -50,0 -50,0 -6,0 -12,6 -12,12 0,0 0,22 0,22 0,6 6,12 12,12" />
    <text
       style="font-size:14px;font-family:Times, serif;text-anchor:middle;fill:#000000"
       id="text65"
       font-size="14.00"
       y="-235.7011"
       x="254.4222">+-Any</text>
    <polyline
       style="fill:none;stroke:#000000"
       id="polyline67"
       points="309.706,-53.9876 309.706,-99.9876 "
       transform="translate(-28.783793,-162.41349)" />
    <text
       style="font-size:14px;font-family:Times, serif;text-anchor:middle;fill:#000000"
       id="text69"
       font-size="14.00"
       y="-247.2011"
       x="291.42221">-</text>
    <polyline
       style="fill:none;stroke:#000000"
       id="polyline71"
       points="309.706,-76.9876 330.706,-76.9876 "
       transform="translate(-28.783793,-162.41349)" />
    <text
       style="font-size:14px;font-family:Times, serif;text-anchor:middle;fill:#000000"
       id="text73"
       font-size="14.00"
       y="-61.787601"
       x="320.20599" />
    <!-- N&#45;&#45;&#45;C -->
    <path
       style="fill:none;stroke:#000000"
       inkscape:connector-curvature="0"
       id="path78"
       d="m 324.23642,-238.31726 -22.31421,-1.08383"
       sodipodi:nodetypes="cc" />
    <!-- HA -->
    <path
       style="fill:#cecece;stroke:#000000"
       inkscape:connector-curvature="0"
       id="path83"
       d="m 436.01794,-144.48198 c 0,0 55,0 55,0 6,0 12,-6 12,-12 0,0 0,-22 0,-22 0,-6 -6,-12 -12,-12 0,0 -55,0 -55,0 -6,0 -12,6 -12,12 0,0 0,22 0,22 0,6 6,12 12,12" />
    <text
       style="font-size:14px;font-family:Times, serif;text-anchor:middle;fill:#000000"
       id="text85"
       font-size="14.00"
       y="-163.78197"
       x="437.01794">H</text>
    <polyline
       style="fill:none;stroke:#000000"
       id="polyline87"
       points="365.3099,-181.2631 365.3099,-227.2631 "
       transform="translate(84.708037,36.781122)" />
    <text
       style="font-size:14px;font-family:Times, serif;text-anchor:middle;fill:#000000"
       id="text89"
       font-size="14.00"
       y="-175.28198"
       x="476.51794">HA</text>
    <polyline
       style="fill:none;stroke:#000000"
       id="polyline91"
       points="365.3099,-204.2631 418.3099,-204.2631 "
       transform="translate(84.708037,36.781122)" />
    <text
       style="font-size:14px;font-family:Times, serif;text-anchor:middle;fill:#000000"
       id="text93"
       font-size="14.00"
       y="-152.28197"
       x="476.51794">HB1</text>
    <!-- CA&#45;&#45;HA -->
    <path
       style="fill:none;stroke:#000000"
       inkscape:connector-curvature="0"
       id="path98"
       d="m 430.42698,-239.57606 -36.80881,1.82867"
       sodipodi:nodetypes="cc" />
    <!-- CB -->
    <path
       style="fill:#40e0d0;stroke:#000000"
       inkscape:connector-curvature="0"
       id="path103"
       d="m 430.8475,-309.50282 c 0,0 58,0 58,0 6,0 12,-6 12,-12 0,0 0,-22 0,-22 0,-6 -6,-12 -12,-12 0,0 -58,0 -58,0 -6,0 -12,6 -12,12 0,0 0,22 0,22 0,6 6,12 12,12" />
    <text
       style="font-size:14px;font-family:Times, serif;text-anchor:middle;fill:#000000"
       id="text105"
       font-size="14.00"
       y="-328.8028"
       x="431.84753">C</text>
    <polyline
       style="fill:none;stroke:#000000"
       id="polyline107"
       points="398.8157,-330.0243 398.8157,-376.0243 "
       transform="translate(46.031803,20.52148)" />
    <text
       style="font-size:14px;font-family:Times, serif;text-anchor:middle;fill:#000000"
       id="text109"
       font-size="14.00"
       y="-340.3028"
       x="472.84753">CB</text>
    <polyline
       style="fill:none;stroke:#000000"
       id="polyline111"
       points="398.8157,-353.0243 454.8157,-353.0243 "
       transform="translate(46.031803,20.52148)" />
    <text
       style="font-size:14px;font-family:Times, serif;text-anchor:middle;fill:#ff2a00;fill-opacity:1;stroke:#5d0000;stroke-width:0.79999095;stroke-miterlimit:4;stroke-dasharray:none;stroke-opacity:1;"
       id="text113"
       font-size="14.00"
       y="-317.3028"
       x="472.84753">
      <tspan
         style="fill:#ff2a00;fill-opacity:1;stroke:#5d0000;stroke-width:0.79999095;stroke-miterlimit:4;stroke-dasharray:none;stroke-opacity:1;"
         id="tspan1748">CG321</tspan>
    </text>
    <!-- CA&#45;&#45;CB -->
    <path
       style="fill:none;stroke:#000000"
       inkscape:connector-curvature="0"
       id="path118"
       d="m 460.44203,-262.09941 0.0739,-47.7678"
       sodipodi:nodetypes="cc" />
    <!-- C -->
    <path
       style="fill:#40e0d0;stroke:#000000"
       inkscape:connector-curvature="0"
       id="path123"
       d="m 533.73783,-215.55647 c 0,0 30,0 30,0 6,0 12,-6 12,-12 0,0 0,-22 0,-22 0,-6 -6,-12 -12,-12 0,0 -30,0 -30,0 -6,0 -12,6 -12,12 0,0 0,22 0,22 0,6 6,12 12,12" />
    <text
       style="font-size:14px;font-family:Times, serif;text-anchor:middle;fill:#000000"
       id="text125"
       font-size="14.00"
       y="-234.85646"
       x="535.23779">C</text>
    <polyline
       style="fill:none;stroke:#000000"
       id="polyline127"
       points="571.9443,-168.891 571.9443,-214.891 "
       transform="translate(-23.206467,-46.665474)" />
    <text
       style="font-size:14px;font-family:Times, serif;text-anchor:middle;fill:#000000"
       id="text129"
       font-size="14.00"
       y="-246.35646"
       x="562.23779">C</text>
    <polyline
       style="fill:none;stroke:#000000"
       id="polyline131"
       points="571.9443,-191.891 598.9443,-191.891 "
       transform="translate(-23.206467,-46.665474)" />
    <text
       style="font-size:14px;font-family:Times, serif;text-anchor:middle;fill:#000000"
       id="text133"
       font-size="14.00"
       y="-223.35646"
       x="562.23779">C</text>
    <!-- CA&#45;&#45;C -->
    <!-- HB1 -->
    <path
       style="fill:#cecece;stroke:#000000"
       inkscape:connector-curvature="0"
       id="path143"
       d="m 334.49289,-310.72173 c 0,0 55,0 55,0 6,0 12,-6 12,-12 0,0 0,-22 0,-22 0,-6 -6,-12 -12,-12 0,0 -55,0 -55,0 -6,0 -12,6 -12,12 0,0 0,22 0,22 0,6 6,12 12,12" />
    <text
       style="font-size:14px;font-family:Times, serif;text-anchor:middle;fill:#000000"
       id="text145"
       font-size="14.00"
       y="-330.02167"
       x="335.49292">H</text>
    <polyline
       style="fill:none;stroke:#000000"
       id="polyline147"
       points="285.1223,-351.7345 285.1223,-397.7345 "
       transform="translate(63.37059,41.012773)" />
    <text
       style="font-size:14px;font-family:Times, serif;text-anchor:middle;fill:#000000"
       id="text149"
       font-size="14.00"
       y="-341.52167"
       x="374.99292">HB1</text>
    <polyline
       style="fill:none;stroke:#000000"
       id="polyline151"
       points="285.1223,-374.7345 338.1223,-374.7345 "
       transform="translate(63.37059,41.012773)" />
    <text
       style="font-size:14px;font-family:Times, serif;text-anchor:middle;fill:#ff2a00;fill-opacity:1;stroke:#5d0000;stroke-width:0.79999095;stroke-miterlimit:4;stroke-dasharray:none;stroke-opacity:1;"
       id="text153"
       font-size="14.00"
       y="-318.52167"
       x="374.99292">HGA2</text>
    <!-- CB&#45;&#45;HB1 -->
    <path
       style="fill:none;stroke:#000000"
       inkscape:connector-curvature="0"
       id="path158"
       d="m 419.00337,-333.87049 -17.51048,0.14876"
       sodipodi:nodetypes="cc" />
    <!-- HB2 -->
    <path
       style="fill:#cecece;stroke:#000000"
       inkscape:connector-curvature="0"
       id="path163"
       d="m 534.58964,-307.84093 c 0,0 55,0 55,0 6,0 12,-6 12,-12 0,0 0,-22 0,-22 0,-6 -6,-12 -12,-12 0,0 -55,0 -55,0 -6,0 -12,6 -12,12 0,0 0,22 0,22 0,6 6,12 12,12" />
    <text
       style="font-size:14px;font-family:Times, serif;text-anchor:middle;fill:#000000"
       id="text165"
       font-size="14.00"
       y="-326.4512"
       x="534.82477">H</text>
    <polyline
       style="fill:none;stroke:#000000"
       id="polyline167"
       points="293.1866,-293.4144 293.1866,-339.4144 "
       transform="translate(254.63812,-13.736842)" />
    <text
       style="font-size:14px;font-family:Times, serif;text-anchor:middle;fill:#000000"
       id="text169"
       font-size="14.00"
       y="-338.6409"
       x="575.08966">HB2</text>
    <polyline
       style="fill:none;stroke:#000000"
       id="polyline171"
       points="293.1866,-316.4144 346.1866,-316.4144 "
       transform="translate(255.40304,-14.426536)" />
    <text
       style="font-size:14px;font-family:Times, serif;text-anchor:middle;fill:#ff2a00;fill-opacity:1;stroke:#5d0000;stroke-width:0.79999095;stroke-miterlimit:4;stroke-dasharray:none;stroke-opacity:1;"
       id="text173"
       font-size="14.00"
       y="-315.6409"
       x="575.08966">HGA2</text>
    <!-- CB&#45;&#45;HB2 -->
    <path
       style="fill:none;stroke:#000000"
       inkscape:connector-curvature="0"
       id="path178"
       d="m 500.8475,-332.50282 21.89754,0.14657"
       sodipodi:nodetypes="cc" />
    <!-- SG -->
    <!-- CB&#45;&#45;SG -->
    <path
       style="fill:none;stroke:#000000"
       inkscape:connector-curvature="0"
       id="path198"
       d="m 460.16479,-355.5703 28.82501,-63.18702"
       sodipodi:nodetypes="cc" />
    <!-- CD -->
    <!-- SG&#45;&#45;CD -->
    <!-- O -->
    <path
       style="fill:#ff0000;stroke:#000000"
       inkscape:connector-curvature="0"
       id="path223"
       d="m 533.98398,-145.63021 c 0,0 30,0 30,0 6,0 12,-6 12,-12 0,0 0,-22 0,-22 0,-6 -6,-12 -12,-12 0,0 -30,0 -30,0 -6,0 -12,6 -12,12 0,0 0,22 0,22 0,6 6,12 12,12" />
    <text
       style="font-size:14px;font-family:Times, serif;text-anchor:middle;fill:#000000"
       id="text225"
       font-size="14.00"
       y="-164.93019"
       x="535.48407">O</text>
    <polyline
       style="fill:none;stroke:#000000"
       id="polyline227"
       points="681.9,-154.4929 681.9,-200.4929 "
       transform="translate(-132.91602,8.86269)" />
    <text
       style="font-size:14px;font-family:Times, serif;text-anchor:middle;fill:#000000"
       id="text229"
       font-size="14.00"
       y="-176.43019"
       x="562.48407">O</text>
    <polyline
       style="fill:none;stroke:#000000"
       id="polyline231"
       points="681.9,-177.4929 708.9,-177.4929 "
       transform="translate(-132.91602,8.86269)" />
    <text
       style="font-size:14px;font-family:Times, serif;text-anchor:middle;fill:#000000"
       id="text233"
       font-size="14.00"
       y="-153.43019"
       x="562.48407">O</text>
    <!-- C&#45;&#45;O -->
    <!-- +N -->
    <path
       style="fill:#b27c00;stroke:#000000"
       inkscape:connector-curvature="0"
       id="path243"
       d="m 604.77792,-212.0057 c 0,0 54,0 54,0 6,0 12,-6 12,-12 0,0 0,-22 0,-22 0,-6 -6,-12 -12,-12 0,0 -54,0 -54,0 -6,0 -12,6 -12,12 0,0 0,22 0,22 0,6 6,12 12,12" />
    <text
       style="font-size:14px;font-family:Times, serif;text-anchor:middle;fill:#000000"
       id="text245"
       font-size="14.00"
       y="-231.30571"
       x="619.27789">+-Any</text>
    <polyline
       style="fill:none;stroke:#000000"
       id="polyline247"
       points="630.4386,-66.894 630.4386,-112.894 "
       transform="translate(15.339325,-145.11171)" />
    <text
       style="font-size:14px;font-family:Times, serif;text-anchor:middle;fill:#000000"
       id="text249"
       font-size="14.00"
       y="-242.80571"
       x="658.27789">+</text>
    <polyline
       style="fill:none;stroke:#000000"
       id="polyline251"
       points="630.4386,-89.894 655.4386,-89.894 "
       transform="translate(15.339325,-145.11171)" />
    <text
       style="font-size:14px;font-family:Times, serif;text-anchor:middle;fill:#000000"
       id="text253"
       font-size="14.00"
       y="-74.694"
       x="642.9386" />
    <!-- C&#45;&#45;+N -->
    <path
       style="fill:none;stroke:#000000"
       inkscape:connector-curvature="0"
       id="path258"
       d="m 548.73783,-215.55647 0.24615,23.92626"
       sodipodi:nodetypes="cc" />
    <!-- CE -->
    <!-- CD&#45;&#45;CE -->
    <!-- HD1 -->
    <!-- CD&#45;&#45;HD1 -->
    <!-- HD2 -->
    <!-- CD&#45;&#45;HD2 -->
    <!-- OZ -->
    <!-- CE&#45;&#45;OZ -->
    <!-- NZ -->
    <!-- CE&#45;&#45;NZ -->
    <!-- C6 -->
    <!-- NZ&#45;&#45;C6 -->
    <!-- HNZ -->
    <!-- NZ&#45;&#45;HNZ -->
    <!-- C5 -->
    <!-- C6&#45;&#45;C5 -->
    <!-- C6A -->
    <!-- C6&#45;&#45;C6A -->
    <!-- C4A -->
    <!-- C5&#45;&#45;C4A -->
    <!-- H5 -->
    <!-- C5&#45;&#45;H5 -->
    <!-- C10 -->
    <!-- C6A&#45;&#45;C10 -->
    <!-- C7 -->
    <!-- C6A&#45;&#45;C7 -->
    <!-- C4 -->
    <!-- C4A&#45;&#45;C4 -->
    <!-- C1A -->
    <!-- C4A&#45;&#45;C1A -->
    <!-- C10&#45;&#45;C1A -->
    <!-- N10 -->
    <!-- C10&#45;&#45;N10 -->
    <!-- C8 -->
    <!-- C7&#45;&#45;C8 -->
    <!-- H7 -->
    <!-- C7&#45;&#45;H7 -->
    <!-- C3 -->
    <!-- C4&#45;&#45;C3 -->
    <!-- H4 -->
    <!-- C4&#45;&#45;H4 -->
    <!-- N1 -->
    <!-- C1A&#45;&#45;N1 -->
    <!-- C9 -->
    <!-- N10&#45;&#45;C9 -->
    <!-- C8&#45;&#45;C9 -->
    <!-- H8 -->
    <!-- C8&#45;&#45;H8 -->
    <!-- C2 -->
    <!-- C3&#45;&#45;C2 -->
    <!-- H3 -->
    <!-- C3&#45;&#45;H3 -->
    <!-- N1&#45;&#45;C2 -->
    <!-- H9 -->
    <!-- C9&#45;&#45;H9 -->
    <!-- H2 -->
    <!-- C2&#45;&#45;H2 -->
    <text
       xml:space="preserve"
       style="font-style:normal;font-weight:normal;font-size:29.99966049px;line-height:1;font-family:sans-serif;letter-spacing:0px;word-spacing:0px;fill:#000000;fill-opacity:1;stroke:none;stroke-width:0.74999154"
       x="477.91357"
       y="-427.01834"
       id="text1634"><tspan
         sodipodi:role="line"
         id="tspan1632"
         x="477.91357"
         y="-427.01834"
         style="font-style:normal;font-variant:normal;font-weight:normal;font-stretch:normal;font-size:27.99968338px;font-family:'CMU Serif';-inkscape-font-specification:'CMU Serif';fill:#000000;fill-opacity:1;stroke-width:0.74999154">...</tspan></text>
  </g>
</svg>
